Coordinates
version=1
nRows=12
nColumns=24
inDegrees=yes

Units are S.I. units (second, meters, Newtons, ...)
Angles are in degrees.

endheader
time	pelvis_tilt	pelvis_list	pelvis_rotation	pelvis_tx	pelvis_ty	pelvis_tz	hip_flexion_r	hip_adduction_r	hip_rotation_r	knee_angle_r	ankle_angle_r	subtalar_angle_r	mtp_angle_r	hip_flexion_l	hip_adduction_l	hip_rotation_l	knee_angle_l	ankle_angle_l	subtalar_angle_l	mtp_angle_l	lumbar_extension	lumbar_bending	lumbar_rotation
      5.77000000	      3.21651631	      8.09859468	     -0.31964933	      0.65367456	      0.88999862	     -0.21350914	     18.82793251	    -10.21102293	     -4.61730570	    -72.24852353	    -12.30307415	     -5.70169981	      0.00000000	      2.80005475	     14.38379835	      8.32486040	    -12.07818379	     10.67121136	    -11.11763484	      0.00000000	    -22.43068827	    -10.26246844	     -6.70171567
      5.78000000	      3.07049299	      7.78933764	      0.11190437	      0.66399188	      0.89074117	     -0.21421978	     20.15194572	     -9.86336691	     -4.96644994	    -71.62366302	     -9.00546114	     -4.28581503	      0.00000000	      1.90750956	     14.05723169	      8.81845370	    -11.64394370	     11.13194702	    -10.89852327	      0.00000000	    -22.50993468	     -9.74773775	     -7.04719943
      5.79000000	      2.91840885	      7.46349631	      0.52294717	      0.67422745	      0.89131410	     -0.21491234	     21.39841006	     -9.50146135	     -5.30871818	    -70.68513701	     -5.79237768	     -2.81502686	      0.00000000	      1.04668080	     13.70817669	      9.32274048	    -11.22533072	     11.60558293	    -10.76000471	      0.00000000	    -22.59465772	     -9.20996614	     -7.34031912
      5.80000000	      2.76263778	      7.14638207	      0.92403962	      0.68441831	      0.89172556	     -0.21555963	     22.55537760	     -9.15578894	     -5.65133509	    -69.43596764	     -2.77389706	     -1.37009331	      0.00000000	      0.21062481	     13.36201477	      9.85803186	    -10.82263197	     12.04432374	    -10.70404095	      0.00000000	    -22.68155822	     -8.69492627	     -7.61844622
      5.81000000	      2.60614319	      6.84055182	      1.32370532	      0.69459407	      0.89199544	     -0.21614478	     23.60594144	     -8.81952388	     -5.98173170	    -67.86898861	     -0.06491653	     -0.04897201	      0.00000000	     -0.60776714	     13.02009265	     10.46189143	    -10.43799051	     12.42752838	    -10.74837573	      0.00000000	    -22.77374253	     -8.20466027	     -7.89070129
      5.82000000	      2.45160787	      6.55116709	      1.70498819	      0.70473582	      0.89206427	     -0.21669294	     24.56020397	     -8.50104690	     -6.28820721	    -66.01223199	      2.27815931	      1.08075274	      0.00000000	     -1.39291604	     12.69581634	     11.09223100	    -10.09992605	     12.82526977	    -10.90616220	      0.00000000	    -22.88038926	     -7.73098018	     -8.15171235
      5.83000000	      2.29160896	      6.28849117	      2.06549066	      0.71487569	      0.89191183	     -0.21720212	     25.42189572	     -8.20435577	     -6.55674265	    -63.87600888	      4.24009158	      1.96757342	      0.00000000	     -2.13892160	     12.40061733	     11.73483213	     -9.81250748	     13.24286610	    -11.15161778	      0.00000000	    -22.98745108	     -7.27875883	     -8.38574196
      5.84000000	      2.15023048	      6.05725247	      2.44781114	      0.72512132	      0.89166139	     -0.21756168	     26.11969746	     -7.92268643	     -6.79907299	    -61.42617749	      5.81863204	      2.62200182	      0.00000000	     -2.90094091	     12.11708272	     12.47104729	     -9.54855109	     13.59968553	    -11.47559940	      0.00000000	    -23.09700145	     -6.91047608	     -8.67175147
      5.85000000	      2.01417522	      5.87073669	      2.79627267	      0.73541797	      0.89121990	     -0.21785558	     26.70239156	     -7.65800832	     -6.95058847	    -58.70537499	      7.06956730	      3.01198093	      0.00000000	     -3.65845204	     11.87286885	     13.22581260	     -9.30493507	     13.92691018	    -11.82544572	      0.00000000	    -23.22460492	     -6.57116889	     -8.96649410
      5.86000000	      1.83595080	      5.74428439	      3.09700524	      0.74584630	      0.89048936	     -0.21799147	     27.21894251	     -7.41980402	     -6.99777503	    -55.72839624	      8.06835366	      3.21012575	      0.00000000	     -4.34246198	     11.68689671	     13.81109033	     -9.11720611	     14.33945133	    -12.10598935	      0.00000000	    -23.26423158	     -6.34481650	     -9.17865805
      5.87000000	      1.70250106	      5.66305810	      3.43240451	      0.75631754	      0.88971155	     -0.21804839	     27.53402894	     -7.20760773	     -6.97872372	    -52.45766376	      8.80149915	      3.24532036	      0.00000000	     -5.08174665	     11.51944174	     14.50286703	     -8.93697829	     14.68541692	    -12.35033944	      0.00000000	    -23.39340056	     -6.16488479	     -9.55599837
      5.88000000	      1.53853355	      5.63860662	      3.73721034	      0.76693767	      0.88870791	     -0.21802441	     27.74829296	     -7.03583276	     -6.87913682	    -48.93109552	      9.35718388	      3.17619026	      0.00000000	     -5.77907750	     11.40557620	     15.06669897	     -8.78878353	     15.06716342	    -12.51397055	      0.00000000	    -23.45215287	     -6.06943913	     -9.88145199
